<svg width="22" height="22" viewBox="0 0 22 22" fill="none" xmlns="http://www.w3.org/2000/svg">
<path d="M14.71 7.28983C14.617 7.19611 14.5064 7.12171 14.3846 7.07094C14.2627 7.02017 14.132 6.99404 14 6.99404C13.868 6.99404 13.7373 7.02017 13.6154 7.07094C13.4936 7.12171 13.383 7.19611 13.29 7.28983L11 9.58984L8.70999 7.28983C8.52168 7.10153 8.26629 6.99574 7.99999 6.99574C7.73369 6.99574 7.47829 7.10153 7.28999 7.28983C7.10168 7.47814 6.9959 7.73353 6.9959 7.99984C6.9959 8.26614 7.10168 8.52153 7.28999 8.70984L9.58999 10.9998L7.28999 13.2898C7.19626 13.3828 7.12187 13.4934 7.0711 13.6153C7.02033 13.7371 6.99419 13.8678 6.99419 13.9998C6.99419 14.1318 7.02033 14.2626 7.0711 14.3844C7.12187 14.5063 7.19626 14.6169 7.28999 14.7098C7.38295 14.8036 7.49355 14.878 7.61541 14.9287C7.73727 14.9795 7.86798 15.0056 7.99999 15.0056C8.132 15.0056 8.26271 14.9795 8.38456 14.9287C8.50642 14.878 8.61702 14.8036 8.70999 14.7098L11 12.4098L13.29 14.7098C13.383 14.8036 13.4936 14.878 13.6154 14.9287C13.7373 14.9795 13.868 15.0056 14 15.0056C14.132 15.0056 14.2627 14.9795 14.3846 14.9287C14.5064 14.878 14.617 14.8036 14.71 14.7098C14.8037 14.6169 14.8781 14.5063 14.9289 14.3844C14.9796 14.2626 15.0058 14.1318 15.0058 13.9998C15.0058 13.8678 14.9796 13.7371 14.9289 13.6153C14.8781 13.4934 14.8037 13.3828 14.71 13.2898L12.41 10.9998L14.71 8.70984C14.8037 8.61687 14.8781 8.50627 14.9289 8.38441C14.9796 8.26255 15.0058 8.13185 15.0058 7.99984C15.0058 7.86782 14.9796 7.73712 14.9289 7.61526C14.8781 7.4934 14.8037 7.3828 14.71 7.28983ZM18.07 3.92984C17.1475 2.97473 16.0441 2.21291 14.824 1.68882C13.604 1.16473 12.2918 0.888869 10.964 0.877331C9.63621 0.865793 8.31941 1.11881 7.09045 1.62162C5.86148 2.12443 4.74497 2.86696 3.80604 3.80589C2.86711 4.74481 2.12458 5.86133 1.62177 7.09029C1.11896 8.31926 0.865945 9.63605 0.877483 10.9638C0.889021 12.2916 1.16488 13.6038 1.68897 14.8239C2.21306 16.0439 2.97489 17.1474 3.92999 18.0698C4.85246 19.0249 5.9559 19.7868 7.17594 20.3109C8.39598 20.8349 9.70818 21.1108 11.036 21.1223C12.3638 21.1339 13.6806 20.8809 14.9095 20.3781C16.1385 19.8752 17.255 19.1327 18.1939 18.1938C19.1329 17.2549 19.8754 16.1383 20.3782 14.9094C20.881 13.6804 21.134 12.3636 21.1225 11.0358C21.111 9.70803 20.8351 8.39583 20.311 7.17579C19.7869 5.95575 19.0251 4.8523 18.07 3.92984ZM16.66 16.6598C15.352 17.9692 13.6305 18.7847 11.7888 18.9671C9.94704 19.1496 8.09899 18.6879 6.55951 17.6606C5.02003 16.6333 3.88435 15.104 3.34596 13.3333C2.80758 11.5626 2.89979 9.65998 3.6069 7.94962C4.31401 6.23926 5.59226 4.82698 7.22388 3.9534C8.8555 3.07981 10.7395 2.79897 12.555 3.15871C14.3705 3.51845 16.005 4.49653 17.1802 5.9263C18.3554 7.35607 18.9985 9.14907 19 10.9998C19.0036 12.0511 18.7986 13.0927 18.3969 14.0642C17.9953 15.0358 17.4049 15.918 16.66 16.6598Z" fill="#A9ADB3"/>
</svg>
