<svg width="30" height="30" viewBox="0 0 30 30" fill="none" xmlns="http://www.w3.org/2000/svg">
<path d="M15 5.66658C13.154 5.66658 11.3495 6.21398 9.81466 7.23954C8.27981 8.26509 7.08353 9.72276 6.37711 11.4282C5.67069 13.1336 5.48586 15.0103 5.84599 16.8208C6.20612 18.6312 7.09503 20.2943 8.40032 21.5996C9.70561 22.9049 11.3687 23.7938 13.1791 24.1539C14.9896 24.514 16.8663 24.3292 18.5717 23.6228C20.2771 22.9164 21.7348 21.7201 22.7604 20.1852C23.7859 18.6504 24.3333 16.8459 24.3333 14.9999C24.3333 12.5246 23.35 10.1506 21.5996 8.40025C19.8493 6.64992 17.4753 5.66658 15 5.66658V5.66658ZM15 21.6666C13.6814 21.6666 12.3925 21.2756 11.2962 20.543C10.1999 19.8105 9.34537 18.7693 8.84079 17.5511C8.33621 16.333 8.20418 14.9925 8.46142 13.6993C8.71865 12.4061 9.35359 11.2182 10.2859 10.2859C11.2183 9.35352 12.4062 8.71858 13.6994 8.46135C14.9926 8.20411 16.333 8.33614 17.5512 8.84072C18.7694 9.34531 19.8106 10.1998 20.5431 11.2961C21.2757 12.3924 21.6667 13.6814 21.6667 14.9999C21.6667 16.768 20.9643 18.4637 19.714 19.714C18.4638 20.9642 16.7681 21.6666 15 21.6666V21.6666ZM15 10.9999C14.2089 10.9999 13.4355 11.2345 12.7777 11.674C12.1199 12.1136 11.6072 12.7383 11.3045 13.4692C11.0017 14.2001 10.9225 15.0044 11.0768 15.7803C11.2312 16.5562 11.6121 17.2689 12.1716 17.8283C12.731 18.3878 13.4437 18.7687 14.2196 18.9231C14.9955 19.0774 15.7998 18.9982 16.5307 18.6954C17.2616 18.3927 17.8863 17.88 18.3259 17.2222C18.7654 16.5644 19 15.791 19 14.9999C19 13.9391 18.5786 12.9216 17.8284 12.1715C17.0783 11.4213 16.0609 10.9999 15 10.9999ZM15 16.3333C14.7363 16.3333 14.4785 16.2551 14.2592 16.1085C14.04 15.962 13.8691 15.7538 13.7681 15.5102C13.6672 15.2665 13.6408 14.9984 13.6923 14.7398C13.7437 14.4812 13.8707 14.2436 14.0572 14.0571C14.2436 13.8706 14.4812 13.7437 14.7399 13.6922C14.9985 13.6408 15.2666 13.6672 15.5102 13.7681C15.7539 13.869 15.9621 14.0399 16.1086 14.2592C16.2551 14.4784 16.3333 14.7362 16.3333 14.9999C16.3333 15.3535 16.1928 15.6927 15.9428 15.9427C15.6927 16.1928 15.3536 16.3333 15 16.3333ZM15 0.333252C12.0992 0.333252 9.26354 1.19344 6.85162 2.80503C4.4397 4.41662 2.55984 6.70724 1.44975 9.38723C0.339668 12.0672 0.0492189 15.0162 0.615135 17.8612C1.18105 20.7063 2.57792 23.3196 4.62909 25.3708C6.68026 27.422 9.29361 28.8188 12.1387 29.3848C14.9837 29.9507 17.9327 29.6602 20.6127 28.5501C23.2927 27.4401 25.5833 25.5602 27.1949 23.1483C28.8065 20.7364 29.6667 17.9007 29.6667 14.9999C29.6667 11.1101 28.1214 7.37955 25.3709 4.62902C22.6204 1.87849 18.8898 0.333252 15 0.333252V0.333252ZM15 26.9999C12.6266 26.9999 10.3065 26.2961 8.33314 24.9776C6.35975 23.659 4.82168 21.7848 3.91343 19.5921C3.00518 17.3994 2.76754 14.9866 3.23056 12.6588C3.69359 10.3311 4.83647 8.19287 6.5147 6.51464C8.19293 4.83641 10.3311 3.69352 12.6589 3.23049C14.9867 2.76747 17.3995 3.00511 19.5922 3.91336C21.7849 4.82162 23.659 6.35969 24.9776 8.33308C26.2962 10.3065 27 12.6265 27 14.9999C27 18.1825 25.7357 21.2348 23.4853 23.4852C21.2348 25.7356 18.1826 26.9999 15 26.9999V26.9999Z" fill="#EDCB50"/>
</svg>
